<?xml version="1.0" encoding="utf-8"?>
<!-- Generator: Adobe Illustrator 18.0.0, SVG Export Plug-In . SVG Version: 6.00 Build 0)  -->
<!DOCTYPE svg PUBLIC "-//W3C//DTD SVG 1.1//EN" "http://www.w3.org/Graphics/SVG/1.1/DTD/svg11.dtd">
<svg version="1.1" id="Layer_1" xmlns="http://www.w3.org/2000/svg" xmlns:xlink="http://www.w3.org/1999/xlink" x="0px" y="0px"
	 width="60px" height="60px" viewBox="0 0 60 60" enable-background="new 0 0 60 60" xml:space="preserve">
<g>
	
		<line opacity="0.3" fill="none" stroke="#000000" stroke-width="5.5" stroke-linecap="round" stroke-linejoin="round" stroke-miterlimit="10" x1="7" y1="35.7" x2="53.6" y2="35.7"/>
	
		<line fill="none" stroke="#000000" stroke-width="5.5" stroke-linecap="round" stroke-linejoin="round" stroke-miterlimit="10" x1="7" y1="35.7" x2="24.4" y2="35.7"/>
	<g>
		<g>
			<path d="M40.5,24.5v-1.3h1.1v1.3h0.9v1.1h-0.9v1.8h-1.1v-1.8h-3.1v-1.1l2.6-4.3h1.3l-2.6,4.3H40.5z"/>
			<path d="M46.7,23c0.2-0.3,0.3-0.6,0.3-0.9c0-0.3-0.1-0.5-0.3-0.7c-0.2-0.2-0.5-0.3-0.8-0.3c-0.6,0-1.1,0.3-1.5,0.9l-1-0.6
				c0.3-0.5,0.7-0.8,1-1.1s0.9-0.4,1.5-0.4c0.6,0,1.1,0.2,1.6,0.6s0.7,0.9,0.7,1.6c0,0.4-0.1,0.7-0.3,1.1c-0.2,0.3-0.5,0.8-1.1,1.3
				l-1.7,1.7h3.3v1.2h-4.9v-1l2.2-2.2C46.2,23.7,46.5,23.3,46.7,23z"/>
			<path d="M52.1,20.5c0.3,0.3,0.4,0.7,0.4,1.2c0,0.5-0.1,0.8-0.4,1.2c-0.3,0.3-0.7,0.5-1.1,0.5c-0.4,0-0.8-0.2-1.1-0.5
				c-0.3-0.3-0.4-0.7-0.4-1.2c0-0.5,0.1-0.8,0.4-1.2c0.3-0.3,0.7-0.5,1.1-0.5C51.4,20.1,51.8,20.2,52.1,20.5z M56.2,20.2L51,27.4
				h-1.3l5.3-7.2H56.2z M51.4,22.2c0.1-0.1,0.2-0.3,0.2-0.5c0-0.2-0.1-0.4-0.2-0.5c-0.1-0.1-0.3-0.2-0.4-0.2c-0.2,0-0.3,0.1-0.4,0.2
				c-0.1,0.1-0.2,0.3-0.2,0.5c0,0.2,0.1,0.4,0.2,0.5c0.1,0.1,0.3,0.2,0.4,0.2C51.1,22.4,51.3,22.4,51.4,22.2z M56.1,24.7
				c0.3,0.3,0.4,0.7,0.4,1.2c0,0.5-0.1,0.8-0.4,1.2c-0.3,0.3-0.7,0.5-1.1,0.5c-0.4,0-0.8-0.2-1.1-0.5s-0.4-0.7-0.4-1.2
				c0-0.5,0.1-0.8,0.4-1.2c0.3-0.3,0.7-0.5,1.1-0.5S55.9,24.4,56.1,24.7z M55.5,26.4c0.1-0.1,0.2-0.3,0.2-0.5c0-0.2-0.1-0.4-0.2-0.5
				s-0.3-0.2-0.4-0.2c-0.2,0-0.3,0.1-0.4,0.2s-0.2,0.3-0.2,0.5c0,0.2,0.1,0.4,0.2,0.5c0.1,0.1,0.3,0.2,0.4,0.2S55.4,26.5,55.5,26.4z
				"/>
		</g>
	</g>
</g>
</svg>
